<svg xmlns="http://www.w3.org/2000/svg" xmlns:xlink="http://www.w3.org/1999/xlink" aria-hidden="true" style="width: 0; height: 0; position: absolute; overflow: hidden" version="1.1">
<defs>
<symbol id="icon-pallete" viewBox="0 0 32 32">
<path d="M28.739 4.153c-1.391-2.11-3.606-3.427-6.583-3.914-0.967-0.158-1.931-0.239-2.864-0.239-4.9 0-9.212 2.163-12.468 6.257-2.114 2.658-3.664 5.997-4.482 9.657-0.782 3.497-0.824 7.103-0.12 10.154l0.006 0.023c0.613 2.453 2.831 5.909 5.842 5.909 0.92 0 2.288-0.345 3.58-1.985 0.535-0.669 0.973-1.344 1.36-1.939 1.031-1.586 1.502-2.185 2.376-2.185 0.279 0 0.611 0.058 0.985 0.172 0.566 0.173 1.157 0.26 1.756 0.26 0.001 0 0.001 0 0.002 0 2.738 0 5.695-1.872 8.114-5.137 2.221-2.997 3.712-6.815 3.988-10.213 0.216-2.655-0.299-5.014-1.491-6.82zM22.258 21.126c-1.233 1.399-3.017 1.843-3.984 0.991s-0.75-2.677 0.483-4.076c1.233-1.399 3.017-1.843 3.983-0.991s0.751 2.677-0.483 4.076z"/>
</symbol>
<symbol id="icon-cog" viewBox="0 0 32 32">
<path d="M29.181 19.070c-1.679-2.908-0.669-6.634 2.255-8.328l-3.145-5.447c-0.898 0.527-1.943 0.829-3.058 0.829-3.361 0-6.085-2.742-6.085-6.125h-6.289c0.008 1.044-0.252 2.103-0.811 3.070-1.679 2.908-5.411 3.897-8.339 2.211l-3.144 5.447c0.905 0.515 1.689 1.268 2.246 2.234 1.676 2.903 0.672 6.623-2.241 8.319l3.145 5.447c0.895-0.522 1.935-0.82 3.044-0.82 3.35 0 6.067 2.725 6.084 6.092h6.289c-0.003-1.034 0.259-2.080 0.811-3.038 1.676-2.903 5.399-3.894 8.325-2.219l3.145-5.447c-0.899-0.515-1.678-1.266-2.232-2.226zM16 22.479c-3.578 0-6.479-2.901-6.479-6.479s2.901-6.479 6.479-6.479c3.578 0 6.479 2.901 6.479 6.479s-2.901 6.479-6.479 6.479z"/>
</symbol>
</defs>
</svg>