<svg aria-hidden="true" style="position: absolute; width: 0; height: 0; overflow: hidden;" version="1.1" xmlns="http://www.w3.org/2000/svg" xmlns:xlink="http://www.w3.org/1999/xlink">
<defs>
<symbol id="icon-pallete" viewBox="0 0 32 32">
<path d="M28.739 4.153c-1.391-2.11-3.606-3.427-6.583-3.914-0.967-0.158-1.931-0.239-2.864-0.239-4.9 0-9.212 2.163-12.468 6.257-2.114 2.658-3.664 5.997-4.482 9.657-0.782 3.497-0.824 7.103-0.12 10.154l0.006 0.023c0.613 2.453 2.831 5.909 5.842 5.909 0.92 0 2.288-0.345 3.58-1.985 0.535-0.669 0.973-1.344 1.36-1.939 1.031-1.586 1.502-2.185 2.376-2.185 0.279 0 0.611 0.058 0.985 0.172 0.566 0.173 1.157 0.26 1.756 0.26 0.001 0 0.001 0 0.002 0 2.738 0 5.695-1.872 8.114-5.137 2.221-2.997 3.712-6.815 3.988-10.213 0.216-2.655-0.299-5.014-1.491-6.82zM22.258 21.126c-1.233 1.399-3.017 1.843-3.984 0.991s-0.75-2.677 0.483-4.076c1.233-1.399 3.017-1.843 3.983-0.991s0.751 2.677-0.483 4.076z"></path>
</symbol>
</defs>
</svg>
